<svg width="25" height="33" viewBox="0 0 25 33" fill="none" xmlns="http://www.w3.org/2000/svg">
<g filter="url(#filter0_d_44_189)">
<path d="M8.54732 22.3186C8.54732 18.8186 8.24733 15.4186 8.14733 11.9186C8.14733 11.6186 8.14733 11.2186 8.14733 10.9186C8.14733 11.0186 8.24732 11.1186 8.24732 11.3186C8.74732 12.7186 9.34732 14.0186 10.0473 15.2186C10.7473 16.4186 11.1473 17.8186 11.5473 19.1186C11.3473 19.3186 11.2473 19.5186 11.3473 19.7186C11.3473 19.9186 11.4473 19.9186 11.5473 20.0186C12.0473 20.5186 13.0473 20.2186 13.6473 20.0186C13.8473 19.9186 14.1473 19.8186 14.3473 19.6186C14.6473 19.4186 15.0473 19.0186 14.9473 18.6186C14.9473 18.5186 14.9473 18.4186 14.8473 18.4186C15.2473 17.3186 15.4473 16.2186 15.6473 15.1186C15.8473 13.9186 16.3473 12.8186 16.7473 11.6186C16.7473 12.1186 16.8473 12.6186 16.8473 13.2186C17.0473 15.3186 16.8473 17.5186 16.8473 19.6186C16.8473 20.3186 16.8473 21.0186 17.0473 21.7186C17.1473 22.0186 17.3473 23.2186 17.2473 23.3186C16.7473 23.8186 16.8473 24.4186 17.5473 24.5186C18.3473 24.7186 19.3473 24.4186 19.8473 23.9186C20.8473 23.0186 20.3473 21.5186 20.1473 20.3186C19.7473 18.3186 20.2473 16.1186 20.1473 14.1186C20.0473 11.8186 19.7473 9.61856 19.7473 7.31856C19.7473 5.51856 20.0473 3.61856 19.4473 1.81856C19.4473 1.61856 19.5473 1.41856 19.5473 1.21856C19.7473 0.318557 16.7473 0.818556 16.3473 1.61856C16.0473 1.81856 15.9473 2.11856 16.0473 2.41856C16.0473 2.51856 16.1473 2.51856 16.1473 2.61856C15.5473 5.31856 14.8473 7.91856 13.9473 10.5186C13.6473 11.5186 13.2473 12.5186 12.8473 13.5186C12.3473 12.6186 11.8473 11.6186 11.4473 10.7186C10.2473 7.81856 9.24733 4.91856 7.84733 2.11856C8.04733 0.818556 5.14732 0.918556 4.54732 2.11856C3.84732 3.51856 3.94733 5.01856 4.14733 6.51856C4.44733 8.21856 4.44733 9.91856 4.44733 11.6186C4.44733 14.9186 4.74733 18.3186 4.84733 21.6186C4.54733 21.9186 4.44732 22.3186 4.74732 22.8186C4.84732 23.0186 5.04732 23.1186 5.24732 23.3186C6.44732 24.0186 8.54732 23.5186 8.54732 22.3186Z" fill="black"/>
</g>
<defs>
<filter id="filter0_d_44_189" x="0" y="0.738657" width="24.4503" height="31.8425" filterUnits="userSpaceOnUse" color-interpolation-filters="sRGB">
<feFlood flood-opacity="0" result="BackgroundImageFix"/>
<feColorMatrix in="SourceAlpha" type="matrix" values="0 0 0 0 0 0 0 0 0 0 0 0 0 0 0 0 0 0 127 0" result="hardAlpha"/>
<feOffset dy="4"/>
<feGaussianBlur stdDeviation="2"/>
<feComposite in2="hardAlpha" operator="out"/>
<feColorMatrix type="matrix" values="0 0 0 0 0 0 0 0 0 0 0 0 0 0 0 0 0 0 0.25 0"/>
<feBlend mode="normal" in2="BackgroundImageFix" result="effect1_dropShadow_44_189"/>
<feBlend mode="normal" in="SourceGraphic" in2="effect1_dropShadow_44_189" result="shape"/>
</filter>
</defs>
</svg>
