<svg width="13" height="29" viewBox="0 0 13 29" fill="none" xmlns="http://www.w3.org/2000/svg">
<g filter="url(#filter0_d_44_190)">
<path d="M7.74733 0.918558C7.64733 0.318558 4.34733 1.01856 4.44733 1.81856C4.74733 3.61856 4.64732 5.41856 4.54732 7.21856C4.54732 8.91856 4.94733 10.5186 5.14733 12.2186C5.34733 13.9186 5.04733 15.7186 5.24733 17.4186C5.34733 18.2186 5.84733 19.7186 5.34733 20.4186C4.94733 20.8186 6.54733 20.7186 6.64733 20.7186C7.24733 20.6186 8.14732 20.4186 8.54732 19.8186C9.14732 19.1186 8.74732 17.8186 8.54732 17.0186C8.24732 15.3186 8.44733 13.5186 8.34733 11.7186C8.24733 10.0186 7.74733 8.41856 7.64733 6.81856C7.94733 4.81856 8.04733 2.91856 7.74733 0.918558Z" fill="black"/>
</g>
<defs>
<filter id="filter0_d_44_190" x="0.445099" y="0.693087" width="12.4191" height="28.0366" filterUnits="userSpaceOnUse" color-interpolation-filters="sRGB">
<feFlood flood-opacity="0" result="BackgroundImageFix"/>
<feColorMatrix in="SourceAlpha" type="matrix" values="0 0 0 0 0 0 0 0 0 0 0 0 0 0 0 0 0 0 127 0" result="hardAlpha"/>
<feOffset dy="4"/>
<feGaussianBlur stdDeviation="2"/>
<feComposite in2="hardAlpha" operator="out"/>
<feColorMatrix type="matrix" values="0 0 0 0 0 0 0 0 0 0 0 0 0 0 0 0 0 0 0.25 0"/>
<feBlend mode="normal" in2="BackgroundImageFix" result="effect1_dropShadow_44_190"/>
<feBlend mode="normal" in="SourceGraphic" in2="effect1_dropShadow_44_190" result="shape"/>
</filter>
</defs>
</svg>
