<svg width="87" height="12" viewBox="0 0 87 12" fill="none" xmlns="http://www.w3.org/2000/svg">
<g filter="url(#filter0_d_44_196)">
<path d="M82.6473 2.31856C81.0473 1.71856 79.3473 1.71856 77.7473 1.51856C76.1473 1.31856 74.5473 1.11856 72.8473 0.918556C71.2473 1.01856 69.5473 0.918559 67.8473 1.01856L62.9473 1.31856C56.4473 1.61856 49.9473 1.61856 43.4473 1.41856C36.9473 1.31856 30.4473 0.918556 23.8473 0.918556C20.5473 0.918556 17.2473 1.01856 13.9473 1.21856C12.3473 1.51856 10.7473 1.71856 9.04733 2.11856C7.44733 2.51856 5.94733 3.01856 4.24733 3.11856C5.84733 3.51856 7.54733 3.41856 9.24733 3.41856C10.8473 3.41856 12.4473 3.51856 14.1473 3.61856C17.3473 3.41856 20.6473 3.41856 23.8473 3.31856C30.3473 3.31856 36.8473 3.61856 43.4473 3.81856C49.9473 3.91856 56.5473 4.01856 63.1473 3.71856L68.0473 3.41856C69.6473 3.31856 71.2473 3.31856 72.8473 3.31856C74.4473 3.21856 76.1473 3.01856 77.7473 2.81856C79.4473 2.61856 80.9473 2.21856 82.6473 2.31856H82.7473V2.21856C82.7473 2.01856 82.7473 1.91856 82.7473 1.71856C82.7473 2.11856 82.7473 2.21856 82.6473 2.31856Z" fill="black"/>
</g>
<defs>
<filter id="filter0_d_44_196" x="0.24733" y="0.918556" width="86.5" height="11" filterUnits="userSpaceOnUse" color-interpolation-filters="sRGB">
<feFlood flood-opacity="0" result="BackgroundImageFix"/>
<feColorMatrix in="SourceAlpha" type="matrix" values="0 0 0 0 0 0 0 0 0 0 0 0 0 0 0 0 0 0 127 0" result="hardAlpha"/>
<feOffset dy="4"/>
<feGaussianBlur stdDeviation="2"/>
<feComposite in2="hardAlpha" operator="out"/>
<feColorMatrix type="matrix" values="0 0 0 0 0 0 0 0 0 0 0 0 0 0 0 0 0 0 0.25 0"/>
<feBlend mode="normal" in2="BackgroundImageFix" result="effect1_dropShadow_44_196"/>
<feBlend mode="normal" in="SourceGraphic" in2="effect1_dropShadow_44_196" result="shape"/>
</filter>
</defs>
</svg>
