<svg width="24" height="32" viewBox="0 0 24 32" fill="none" xmlns="http://www.w3.org/2000/svg">
<g filter="url(#filter0_d_44_194)">
<path d="M19.9473 11.6186C19.7473 10.9186 18.7473 10.9186 18.0473 11.0186C18.0473 10.7186 18.0473 10.4186 18.0473 10.2186C17.9473 8.01856 17.9473 5.71856 17.7473 3.41856C17.5473 1.31856 16.4473 0.618557 14.4473 0.718557C12.4473 0.818557 10.0473 1.11856 8.14732 1.91856C5.94732 2.81856 4.74732 4.41856 4.34732 6.71856C3.84732 9.21856 4.54732 11.9186 4.64732 14.5186C4.74732 17.5186 4.74732 20.4186 4.74732 23.4186C4.74732 23.9186 8.04732 23.4186 8.04732 22.5186C8.04732 20.2186 8.04732 17.8186 8.04732 15.5186C8.04732 14.8186 8.04732 14.1186 7.94732 13.4186C9.14732 12.9186 11.0473 13.4186 12.2473 13.5186C13.1473 13.6186 14.0473 13.4186 14.9473 13.3186C14.9473 15.2186 15.0473 17.2186 15.1473 19.2186C15.1473 20.2186 15.5473 22.2186 14.8473 23.0186C14.4473 23.4186 16.0473 23.3186 16.1473 23.3186C16.8473 23.2186 17.6473 23.0186 18.0473 22.4186C18.8473 21.5186 18.4473 19.2186 18.3473 18.1186C18.2473 16.5186 18.2473 14.9186 18.2473 13.3186C19.0473 12.9186 20.1473 12.3186 19.9473 11.6186ZM13.3473 11.4186C11.4473 11.4186 9.54732 11.1186 7.64732 11.4186C7.54732 10.3186 7.44732 9.31856 7.34732 8.21856C7.24732 6.21856 7.44732 3.51856 9.24732 2.31856C9.74732 2.01856 10.6473 2.01856 11.2473 1.91856C12.0473 1.81856 12.8473 1.61856 13.6473 2.11856C14.6473 2.81856 14.4473 5.21856 14.4473 6.21856C14.4473 7.91856 14.6473 9.61856 14.7473 11.3186C14.2473 11.4186 13.7473 11.4186 13.3473 11.4186Z" fill="black"/>
</g>
<defs>
<filter id="filter0_d_44_194" x="0.169037" y="0.709324" width="23.8021" height="30.9074" filterUnits="userSpaceOnUse" color-interpolation-filters="sRGB">
<feFlood flood-opacity="0" result="BackgroundImageFix"/>
<feColorMatrix in="SourceAlpha" type="matrix" values="0 0 0 0 0 0 0 0 0 0 0 0 0 0 0 0 0 0 127 0" result="hardAlpha"/>
<feOffset dy="4"/>
<feGaussianBlur stdDeviation="2"/>
<feComposite in2="hardAlpha" operator="out"/>
<feColorMatrix type="matrix" values="0 0 0 0 0 0 0 0 0 0 0 0 0 0 0 0 0 0 0.25 0"/>
<feBlend mode="normal" in2="BackgroundImageFix" result="effect1_dropShadow_44_194"/>
<feBlend mode="normal" in="SourceGraphic" in2="effect1_dropShadow_44_194" result="shape"/>
</filter>
</defs>
</svg>
