<svg width="22" height="34" viewBox="0 0 22 34" fill="none" xmlns="http://www.w3.org/2000/svg">
<g filter="url(#filter0_d_44_191)">
<path d="M4.94733 11.6186C5.84733 14.1186 9.54733 12.9186 11.5473 13.1186C14.7473 13.3186 13.8473 17.7186 13.8473 19.7186C13.8473 20.8186 14.8473 22.6186 14.0473 23.5186C13.5473 24.1186 12.3473 24.1186 11.6473 24.1186C10.9473 24.2186 9.74733 24.4186 9.34733 23.7186C8.54733 22.5186 9.44733 20.5186 9.24733 19.1186C9.14733 18.3186 5.84733 19.0186 5.94733 20.0186C6.24733 22.2186 4.74733 25.2186 7.94733 25.6186C10.0473 25.8186 12.3473 25.5186 14.2473 24.8186C15.2473 24.5186 16.1473 24.0186 16.9473 23.3186C17.8473 22.5186 17.5473 21.3186 17.3473 20.3186C16.7473 17.8186 17.9473 15.0186 16.3473 12.8186C14.6473 10.5186 11.3473 12.1186 9.14733 11.5186C7.94733 11.3186 7.94733 9.71856 7.94733 8.71856C7.94733 7.51856 7.84733 6.41856 7.74733 5.21856C7.64733 4.31856 7.74733 3.41856 8.34733 2.81856C8.44733 2.71856 9.04733 2.51856 9.04733 2.51856C9.34733 2.41856 9.64733 2.41856 9.94733 2.41856C11.2473 2.31856 13.8473 2.61856 13.3473 4.51856C13.1473 5.41856 16.3473 4.91856 16.6473 4.01856C17.6473 0.118558 10.5473 0.918558 8.44733 1.41856C6.54733 1.91856 4.54733 3.01856 4.44733 5.11856C4.34733 6.11856 4.64733 7.11856 4.74733 8.11856C4.74733 9.31856 4.44733 10.5186 4.94733 11.6186Z" fill="black"/>
</g>
<defs>
<filter id="filter0_d_44_191" x="0.4272" y="0.992941" width="21.1335" height="32.6864" filterUnits="userSpaceOnUse" color-interpolation-filters="sRGB">
<feFlood flood-opacity="0" result="BackgroundImageFix"/>
<feColorMatrix in="SourceAlpha" type="matrix" values="0 0 0 0 0 0 0 0 0 0 0 0 0 0 0 0 0 0 127 0" result="hardAlpha"/>
<feOffset dy="4"/>
<feGaussianBlur stdDeviation="2"/>
<feComposite in2="hardAlpha" operator="out"/>
<feColorMatrix type="matrix" values="0 0 0 0 0 0 0 0 0 0 0 0 0 0 0 0 0 0 0.25 0"/>
<feBlend mode="normal" in2="BackgroundImageFix" result="effect1_dropShadow_44_191"/>
<feBlend mode="normal" in="SourceGraphic" in2="effect1_dropShadow_44_191" result="shape"/>
</filter>
</defs>
</svg>
