<svg width="21" height="33" viewBox="0 0 21 33" fill="none" xmlns="http://www.w3.org/2000/svg">
<g filter="url(#filter0_d_44_192)">
<path d="M4.34733 12.5186C4.24733 14.3186 4.14732 16.1186 4.14732 17.9186C4.14732 18.8186 4.24732 19.7186 4.44732 20.7186C4.54732 21.5186 4.84732 22.7186 4.64732 23.5186C4.44732 24.1186 7.64732 23.7186 7.94732 22.9186C8.44732 21.4186 7.74732 19.5186 7.64732 18.0186C7.54732 16.5186 7.64733 15.1186 7.74733 13.6186C9.44733 13.5186 11.1473 13.4186 12.8473 13.6186C12.9473 14.8186 13.0473 15.9186 13.1473 17.1186C13.2473 18.1186 13.3473 19.0186 13.3473 20.0186C13.3473 20.9186 13.4473 22.1186 13.1473 22.9186C12.4473 24.6186 15.8473 24.5186 16.2473 23.2186C16.8473 21.6186 16.6473 19.7186 16.5473 18.0186C16.2473 15.8186 15.9473 13.8186 15.9473 11.7186C15.8473 8.51856 15.3473 5.41856 15.3473 2.21856C15.3473 0.518558 12.0473 1.11856 12.0473 2.51856C12.0473 5.51856 12.4473 8.51856 12.6473 11.6186C12.6473 11.7186 12.6473 11.7186 12.6473 11.8186C11.0473 11.8186 9.34733 11.9186 7.74733 12.0186C7.94733 8.11856 7.24733 4.21856 7.34733 0.318558C7.34733 -0.181442 4.04732 0.218558 4.04732 1.21856C3.84732 5.01856 4.44733 8.71856 4.34733 12.5186Z" fill="black"/>
</g>
<defs>
<filter id="filter0_d_44_192" x="0.00621033" y="0.103302" width="20.655" height="32.0915" filterUnits="userSpaceOnUse" color-interpolation-filters="sRGB">
<feFlood flood-opacity="0" result="BackgroundImageFix"/>
<feColorMatrix in="SourceAlpha" type="matrix" values="0 0 0 0 0 0 0 0 0 0 0 0 0 0 0 0 0 0 127 0" result="hardAlpha"/>
<feOffset dy="4"/>
<feGaussianBlur stdDeviation="2"/>
<feComposite in2="hardAlpha" operator="out"/>
<feColorMatrix type="matrix" values="0 0 0 0 0 0 0 0 0 0 0 0 0 0 0 0 0 0 0.25 0"/>
<feBlend mode="normal" in2="BackgroundImageFix" result="effect1_dropShadow_44_192"/>
<feBlend mode="normal" in="SourceGraphic" in2="effect1_dropShadow_44_192" result="shape"/>
</filter>
</defs>
</svg>
