<svg width="24" height="35" viewBox="0 0 24 35" fill="none" xmlns="http://www.w3.org/2000/svg">
<g filter="url(#filter0_d_44_193)">
<path d="M5.44733 19.8186C5.14733 20.1186 5.24733 20.2186 5.44733 20.3186C5.44733 21.8186 5.44733 23.2186 5.24733 24.7186C4.84733 25.3186 5.64732 25.7186 6.14732 25.7186H6.24733C6.84733 25.7186 8.44733 25.4186 8.54733 24.6186C8.74733 22.8186 8.74733 21.1186 8.74733 19.3186C10.0473 17.9186 11.1473 16.2186 12.1473 14.6186C12.7473 15.8186 13.3473 17.1186 13.8473 18.5186C14.5473 20.8186 15.7473 22.9186 16.4473 25.3186C16.9473 26.8186 20.2473 25.9186 19.7473 24.4186C19.0473 22.1186 17.8473 19.9186 17.1473 17.6186C16.3473 15.3186 15.1473 13.2186 14.1473 11.0186C14.9473 9.41856 15.8473 7.71856 16.6473 6.01856C17.3473 4.51856 17.8473 2.81856 19.2473 1.71856C19.7473 1.31856 19.7473 0.918559 19.0473 0.918559C18.3473 0.818559 17.3473 1.11856 16.7473 1.51856C15.4473 2.51856 14.7473 3.71856 14.0473 5.11856C13.2473 6.81856 12.4473 8.51856 11.5473 10.2186C11.4473 10.3186 11.4473 10.4186 11.3473 10.6186C10.9473 10.9186 10.6473 11.2186 10.8473 11.7186C10.1473 13.0186 9.54733 14.3186 8.74733 15.6186C8.44733 10.9186 7.94733 6.31856 7.74733 1.61856C7.74733 0.518558 4.44733 1.21856 4.44733 2.51856C4.64733 8.21856 5.44733 14.0186 5.44733 19.8186Z" fill="black"/>
</g>
<defs>
<filter id="filter0_d_44_193" x="0.447327" y="0.899178" width="23.3514" height="33.1903" filterUnits="userSpaceOnUse" color-interpolation-filters="sRGB">
<feFlood flood-opacity="0" result="BackgroundImageFix"/>
<feColorMatrix in="SourceAlpha" type="matrix" values="0 0 0 0 0 0 0 0 0 0 0 0 0 0 0 0 0 0 127 0" result="hardAlpha"/>
<feOffset dy="4"/>
<feGaussianBlur stdDeviation="2"/>
<feComposite in2="hardAlpha" operator="out"/>
<feColorMatrix type="matrix" values="0 0 0 0 0 0 0 0 0 0 0 0 0 0 0 0 0 0 0.25 0"/>
<feBlend mode="normal" in2="BackgroundImageFix" result="effect1_dropShadow_44_193"/>
<feBlend mode="normal" in="SourceGraphic" in2="effect1_dropShadow_44_193" result="shape"/>
</filter>
</defs>
</svg>
